# xmcd CD database file
#
# Track frame offsets:
#	150
#	33820
#	65940
#	104258
#	134280
#	170399
#
# Disc length: 2685 seconds
#
# Revision: 0
# Processed by: cddbd v1.5.2PL0 Copyright (c) Steve Scherf et al.
# Submitted via: CDex 1.70beta2
#
DISCID=4d0a7b06
DTITLE=Aram Shelton - Everyhing for Somebody
DYEAR=2012
DGENRE=Jazz
TTITLE0=Anticipation
TTITLE1=Everything for Somebody
TTITLE2=Joints and Tendons
TTITLE3=Barely Talking
TTITLE4=Deadfall
TTITLE5=Fleeting
EXTD=YEAR: 2012
EXTT0=
EXTT1=
EXTT2=
EXTT3=
EXTT4=
EXTT5=
PLAYORDER=
